<svg xmlns="http://www.w3.org/2000/svg" viewBox="0 0 3088 2314"><filter id="b"><feGaussianBlur stdDeviation="12" /></filter><path fill="#a99688" d="M0 0h3088v2303H0z"/><g filter="url(#b)" transform="translate(6 6) scale(12.0625)" fill-opacity=".5"><ellipse fill="#002" rx="1" ry="1" transform="matrix(-29.00509 63.94136 -28.25697 -12.81793 151 174.7)"/><ellipse fill="azure" rx="1" ry="1" transform="matrix(-169.09984 -2.06605 .28054 -22.96099 137.7 8.4)"/><path fill="#050000" d="M55.8 51.3l-31.4 21 73 3.4L82.7 52z"/><ellipse fill="#ff727b" rx="1" ry="1" transform="matrix(-8.69868 -48.34525 52.9104 -9.52008 45.8 170.7)"/><ellipse fill="#443816" cx="232" cy="86" rx="33" ry="16"/><ellipse fill="#caecdf" rx="1" ry="1" transform="matrix(5.03072 16.98341 -43.1915 12.7939 201 48.3)"/><path fill="#0b0008" d="M140 175l20-21-52-34z"/><ellipse fill="#ffc393" cx="141" cy="100" rx="19" ry="33"/></g></svg>